<?xml version="1.0" encoding="utf-8"?>
<!-- Generator: Adobe Illustrator 24.3.0, SVG Export Plug-In . SVG Version: 6.00 Build 0)  -->
<svg version="1.1" id="Layer_1" xmlns="http://www.w3.org/2000/svg" xmlns:xlink="http://www.w3.org/1999/xlink" x="0px" y="0px"
	 viewBox="0 0 34 34" style="enable-background:new 0 0 34 34;" xml:space="preserve">
<style type="text/css">
	.st0{fill:#FF0000;}
	.st1{fill:#111111;}
</style>
<g id="Layer_2_1_">
	<g id="Close">
		<path id="id_105" class="st0" d="M22.8,22.8c-0.3,0.3-0.7,0.3-0.9,0l-3.3-3.3L18.1,19c-0.3-0.3-0.3-0.7,0-0.9l0,0
			c0.3-0.3,0.7-0.3,0.9,0c0,0,0,0,0,0l0,0l0.5,0.5l3.3,3.3C23.1,22.1,23.1,22.6,22.8,22.8z"/>
		<path id="id_106" class="st1" d="M22.8,11.2c-0.3-0.3-0.7-0.3-0.9,0L17,16.1l-4.9-4.9c-0.3-0.3-0.7-0.2-0.9,0
			c-0.2,0.3-0.2,0.7,0,0.9l4.9,4.9l-4.9,4.9c-0.3,0.3-0.2,0.7,0,0.9c0.3,0.2,0.7,0.2,0.9,0l10.7-10.7C23.1,11.9,23.1,11.4,22.8,11.2
			z"/>
	</g>
</g>
</svg>
